<svg id="Layer_2" data-name="Layer 2" xmlns="http://www.w3.org/2000/svg" width="2457" height="1361.57" viewBox="0 0 2457 1361.57">
  <g id="_404" data-name="404">
    <rect id="Rectangle_12" data-name="Rectangle 12" width="2457" height="1361.57" fill="none"/>
    <path id="Path_14" data-name="Path 14" d="M1224.28,291.12c-48.11,21.88-95.23,46.46-142.42,68.79C948.08,423.19,808,449.58,663.21,475.42,549,495.8,423,528.65,359.28,634.71c-68.44,114-3.21,273.59,85.05,358.26,138,132.36,342.78,161,526.06,144.2,240.21-22.08,506-97.27,705.73-236.06,144-100,198.6-255.55,141.18-422.66-55-160-202-261-371.45-250.56C1367.57,232.74,1294.85,259,1224.28,291.12Z" fill="#f1f2f2"/>
  </g>
</svg>
