<svg id="Layer_1" data-name="Layer 1" xmlns="http://www.w3.org/2000/svg" xmlns:xlink="http://www.w3.org/1999/xlink" viewBox="0 0 194.1 49.1"><defs><style>.cls-1{fill:url(#linear-gradient);}.cls-2{fill:url(#linear-gradient-2);}.cls-3{fill:#313131;}.cls-4{fill:#3180c8;}.cls-5{fill:#303030;}</style><linearGradient id="linear-gradient" x1="9.58" y1="796.57" x2="30.61" y2="851.83" gradientTransform="translate(0 -792)" gradientUnits="userSpaceOnUse"><stop offset="0" stop-color="#3043a9"/><stop offset="1" stop-color="#3180c8"/></linearGradient><linearGradient id="linear-gradient-2" x1="20.02" y1="792.59" x2="41.05" y2="847.85" xlink:href="#linear-gradient"/></defs><title>logo3</title><path class="cls-1" d="M14.3,48.7a13.36,13.36,0,0,1-7.2-1.9,14.4,14.4,0,0,1-5.2-5.2A13.72,13.72,0,0,1,0,34.3a12.53,12.53,0,0,1,1.3-5.7,15.12,15.12,0,0,1,3.6-4.7,15.27,15.27,0,0,1-3.4-4.5A11.33,11.33,0,0,1,.2,14,13.85,13.85,0,0,1,2.1,6.8a13.6,13.6,0,0,1,5.1-5,12.91,12.91,0,0,1,7-1.9H26.6a4.8,4.8,0,0,1,4.7,4.9,4.82,4.82,0,0,1-4.8,4.9H15.9a4.94,4.94,0,0,0-3.4,1.4,4.45,4.45,0,0,0-1.3,3.3,4.3,4.3,0,0,0,1.3,3.3A4.67,4.67,0,0,0,15.9,19H31a4.9,4.9,0,0,1,0,9.8H16.2a4.75,4.75,0,0,0-3.6,1.5,5.24,5.24,0,0,0-1.4,3.6,4.83,4.83,0,0,0,1.4,3.5,5.24,5.24,0,0,0,3.6,1.4h5.5c2.6,0,4.3,2.2,4.7,4.9.4,2.4,1.4,4.9-1.7,4.9H14.3Z" transform="translate(0 0.1)"/><path class="cls-2" d="M38,38.9H30.8c-2.9,0-1.7,2.3-.8,4.9s1.1,4.7,4.1,4.9h4a4.8,4.8,0,0,0,4.7-4.9A5,5,0,0,0,38,38.9Z" transform="translate(0 0.1)"/><path class="cls-3" d="M58.2,33.7a13.49,13.49,0,0,1-5.5-1.1,9,9,0,0,1-3.8-3.1,8.72,8.72,0,0,1-1.4-4.8,9.57,9.57,0,0,1,1.3-5.2,8.31,8.31,0,0,1,3.5-3.2A10.82,10.82,0,0,1,57,15.2a9.89,9.89,0,0,1,4.7,1.1,7.71,7.71,0,0,1,3.1,3.1,9.89,9.89,0,0,1,1.1,4.7,6.15,6.15,0,0,1-.1,1.3,3.73,3.73,0,0,1-.2,1.2H54.1a2.31,2.31,0,0,0,1.3,1.7,4.87,4.87,0,0,0,2.5.6H64v4.9H58.2ZM53.8,23h6.3a3.49,3.49,0,0,0-.8-2.2,3.11,3.11,0,0,0-2.2-.8,2.87,2.87,0,0,0-2.3.9A3.46,3.46,0,0,0,53.8,23Z" transform="translate(0 0.1)"/><path class="cls-3" d="M66.8,33.7V8H73V33.7Z" transform="translate(0 0.1)"/><path class="cls-3" d="M84.5,33.7A13.49,13.49,0,0,1,79,32.6a9,9,0,0,1-3.8-3.1,8.72,8.72,0,0,1-1.4-4.8,9.57,9.57,0,0,1,1.3-5.2,8.31,8.31,0,0,1,3.5-3.2,10.82,10.82,0,0,1,4.7-1.1A9.89,9.89,0,0,1,88,16.3a7.71,7.71,0,0,1,3.1,3.1,9.89,9.89,0,0,1,1.1,4.7,6.15,6.15,0,0,1-.1,1.3,3.73,3.73,0,0,1-.2,1.2H80.3a2.31,2.31,0,0,0,1.3,1.7,4.87,4.87,0,0,0,2.5.6h6.1v4.9H84.5ZM80.1,23h6.3a3.49,3.49,0,0,0-.8-2.2,3.37,3.37,0,0,0-2.3-.8,2.87,2.87,0,0,0-2.3.9A4,4,0,0,0,80.1,23Z" transform="translate(0 0.1)"/><path class="cls-3" d="M93,33.7V23.1A7.59,7.59,0,0,1,94.1,19a7.66,7.66,0,0,1,3.1-2.8,9.88,9.88,0,0,1,4.7-1,9.69,9.69,0,0,1,3.6.6,7.18,7.18,0,0,1,2.7,1.6h.1a9.53,9.53,0,0,1,2.6-1.6,10.64,10.64,0,0,1,3.7-.6,9.88,9.88,0,0,1,4.7,1,7.66,7.66,0,0,1,3.1,2.8,8.11,8.11,0,0,1,1.1,4.1V33.8h-6.2V23.4a3,3,0,0,0-.8-2,2.52,2.52,0,0,0-2.1-.8,3.29,3.29,0,0,0-2.2.8,3,3,0,0,0-.8,2V33.8h-6.2V23.4a3,3,0,0,0-.8-2,2.73,2.73,0,0,0-2.2-.8,2.86,2.86,0,0,0-2.1.8,3,3,0,0,0-.8,2V33.8H93Z" transform="translate(0 0.1)"/><path class="cls-3" d="M134.8,33.7a13.49,13.49,0,0,1-5.5-1.1,9,9,0,0,1-3.8-3.1,8.72,8.72,0,0,1-1.4-4.8,9.57,9.57,0,0,1,1.3-5.2,8.31,8.31,0,0,1,3.5-3.2,10.82,10.82,0,0,1,4.7-1.1,9.89,9.89,0,0,1,4.7,1.1,7.71,7.71,0,0,1,3.1,3.1,9.89,9.89,0,0,1,1.1,4.7,6.15,6.15,0,0,1-.1,1.3,3.73,3.73,0,0,1-.2,1.2H130.5a2.31,2.31,0,0,0,1.3,1.7,4.87,4.87,0,0,0,2.5.6h6.1v4.9h-5.6ZM130.4,23h6.3a3.49,3.49,0,0,0-.8-2.2,3.39,3.39,0,0,0-4.6,0A4.69,4.69,0,0,0,130.4,23Z" transform="translate(0 0.1)"/><path class="cls-3" d="M143.4,33.7V29.1h8.7a1.14,1.14,0,0,0,.8-.3,1,1,0,0,0,0-1.4,1.14,1.14,0,0,0-.8-.3h-3a8.81,8.81,0,0,1-3.3-.6,5,5,0,0,1-2.4-1.9,5.6,5.6,0,0,1-.9-3.3,5.74,5.74,0,0,1,.8-2.9,6.3,6.3,0,0,1,2.2-2.1,6.11,6.11,0,0,1,3-.8h9.1V20h-7.9a1,1,0,0,0,0,2h2.9a7.93,7.93,0,0,1,4.9,1.4q1.8,1.35,1.8,4.5a5.74,5.74,0,0,1-.8,2.9,6.3,6.3,0,0,1-2.2,2.1,6.21,6.21,0,0,1-3.1.8Z" transform="translate(0 0.1)"/><path class="cls-3" d="M163.1,34.2a3.41,3.41,0,0,1-2.5-1.1,3.62,3.62,0,0,1,0-5,3.41,3.41,0,0,1,2.5-1.1,3.25,3.25,0,0,1,2.5,1.1,3.6,3.6,0,0,1-2.5,6.1Z" transform="translate(0 0.1)"/><path class="cls-4" d="M167.1,33.7V15.6h6.2V33.7Zm3.1-20.1a3.32,3.32,0,0,1-2.5-1,3.25,3.25,0,0,1-1-2.4,3.25,3.25,0,0,1,1-2.4,3.32,3.32,0,0,1,2.5-1,3.1,3.1,0,0,1,2.4,1,3.25,3.25,0,0,1,1,2.4,3.41,3.41,0,0,1-3.4,3.4Z" transform="translate(0 0.1)"/><path class="cls-4" d="M184.1,34.2a10.79,10.79,0,0,0,5.2-1.2,8.44,8.44,0,0,0,3.5-3.5,10.79,10.79,0,0,0,1.2-5.2V8h-6.2v9.3h-.1a4.08,4.08,0,0,0-2.1-1.5,6.71,6.71,0,0,0-2.8-.6,8.41,8.41,0,0,0-4.5,1.2,8.66,8.66,0,0,0-3.1,3.2,9.45,9.45,0,0,0-1.1,4.8,10.67,10.67,0,0,0,1.2,5.1,9.06,9.06,0,0,0,3.5,3.5A10.92,10.92,0,0,0,184.1,34.2Zm0-5.3a3.42,3.42,0,0,1-2.7-1.2,4.36,4.36,0,0,1-1-3,4.1,4.1,0,0,1,1-2.9,3.64,3.64,0,0,1,5.4,0,4.1,4.1,0,0,1,1,2.9,4.36,4.36,0,0,1-1,3A3.42,3.42,0,0,1,184.1,28.9Z" transform="translate(0 0.1)"/><path class="cls-5" d="M48.4,44.5v2.4h-.8V41h1.9a2.07,2.07,0,0,1,1.5.5,1.73,1.73,0,0,1,.5,1.3,1.9,1.9,0,0,1-.5,1.3,2.07,2.07,0,0,1-1.5.5H48.4Zm1-.6a1.33,1.33,0,0,0,1-.3,1.14,1.14,0,0,0,.3-.8,1,1,0,0,0-.3-.8,1.33,1.33,0,0,0-1-.3h-1v2.2Zm3.6-.7a1.21,1.21,0,0,1,.7-.7,1.69,1.69,0,0,1,1-.3V43h-.2a1.49,1.49,0,0,0-1,.3,1.35,1.35,0,0,0-.5,1.2v2.4h-.8V42.4H53Zm4.4-1a2.66,2.66,0,0,1,1.2.3,3,3,0,0,1,.8.8,2.66,2.66,0,0,1,.3,1.2,2.38,2.38,0,0,1-.3,1.2,3,3,0,0,1-.8.8,2.13,2.13,0,0,1-1.2.3,2.66,2.66,0,0,1-1.2-.3,3,3,0,0,1-.8-.8,2.66,2.66,0,0,1-.3-1.2,2.38,2.38,0,0,1,.3-1.2,2,2,0,0,1,.8-.8A2.66,2.66,0,0,1,57.4,42.2Zm0,.7a2.35,2.35,0,0,0-.8.2,1.7,1.7,0,0,0-.6.6,2.39,2.39,0,0,0-.2.9,2,2,0,0,0,.2.9,1.7,1.7,0,0,0,.6.6,1.88,1.88,0,0,0,.8.2,1.45,1.45,0,0,0,.7-.2,1.7,1.7,0,0,0,.6-.6,2.92,2.92,0,0,0,.2-.9,2,2,0,0,0-.2-.9c-.1-.3-.3-.4-.6-.6A1.45,1.45,0,0,0,57.4,42.9Zm5.1-.7a2,2,0,0,1,1.1.3,1.46,1.46,0,0,1,.6.9V40.7H65v6.1h-.8V45.6a1.46,1.46,0,0,1-.6.9,2.17,2.17,0,0,1-2.2,0,1.78,1.78,0,0,1-.7-.8,2.66,2.66,0,0,1-.3-1.2,2.38,2.38,0,0,1,.3-1.2,1.85,1.85,0,0,1,.7-.8A1.8,1.8,0,0,1,62.5,42.2Zm.2.7a1.37,1.37,0,0,0-1.1.4,2,2,0,0,0,0,2.4,1.5,1.5,0,0,0,1.1.4,1.88,1.88,0,0,0,.8-.2,1.7,1.7,0,0,0,.6-.6,2.39,2.39,0,0,0,.2-.9c0-.4-.1-.4-.3-.7s-.3-.4-.6-.6A1.45,1.45,0,0,0,62.7,42.9Zm7.4-.6v4.5h-.8V45.7a1.46,1.46,0,0,1-.6.9,1.69,1.69,0,0,1-1,.3,1.9,1.9,0,0,1-1.3-.5A2,2,0,0,1,66,45V42.3h.8v2.6a1.8,1.8,0,0,0,.3,1.1,1.27,1.27,0,0,0,.9.4,1.28,1.28,0,0,0,1-.4,2.14,2.14,0,0,0,.4-1.2V42.4h.7Zm3.2-.1a2,2,0,0,1,1.4.5,1.85,1.85,0,0,1,.7,1.2h-.8a1.37,1.37,0,0,0-.5-.8,1.22,1.22,0,0,0-.9-.3,1.45,1.45,0,0,0-.7.2,1,1,0,0,0-.5.6,2.12,2.12,0,0,0,0,1.8,2.65,2.65,0,0,0,.5.6,1.85,1.85,0,0,0,.7.2,1.22,1.22,0,0,0,.9-.3,1.58,1.58,0,0,0,.5-.8h.8a2.06,2.06,0,0,1-2.1,1.8,2.66,2.66,0,0,1-1.2-.3,3,3,0,0,1-.8-.8,2.66,2.66,0,0,1-.3-1.2,2.38,2.38,0,0,1,.3-1.2,2,2,0,0,1,.8-.8A1.59,1.59,0,0,1,73.3,42.2Zm5.2,4v.7h-.6a1.33,1.33,0,0,1-1-.3,1.61,1.61,0,0,1-.3-1.1V43h-.7v-.7h.7V41.2h.8v1.1h1.2V43H77.4v2.5a.71.71,0,0,0,.8.8h.3Zm4.7-4a2,2,0,0,1,1.1.3,1.46,1.46,0,0,1,.6.9V42.2h.8v4.5h-.8V45.5a1.46,1.46,0,0,1-.6.9,2.17,2.17,0,0,1-2.2,0,1.78,1.78,0,0,1-.7-.8,2.66,2.66,0,0,1-.3-1.2,2.38,2.38,0,0,1,.3-1.2,1.85,1.85,0,0,1,.7-.8A2,2,0,0,1,83.2,42.2Zm.2.7a1.37,1.37,0,0,0-1.1.4,2,2,0,0,0,0,2.4,1.5,1.5,0,0,0,1.1.4,1.88,1.88,0,0,0,.8-.2,1.7,1.7,0,0,0,.6-.6,2.13,2.13,0,0,0,0-1.8c-.1-.3-.3-.4-.6-.6A2.15,2.15,0,0,1,83.4,42.9Zm5.8-.7a1.9,1.9,0,0,1,1.3.5,2.07,2.07,0,0,1,.5,1.5v2.6h-.8V44.2a1.33,1.33,0,0,0-.3-1,1.27,1.27,0,0,0-.9-.4,1.28,1.28,0,0,0-1,.4,2.14,2.14,0,0,0-.4,1.2v2.4h-.8V42.3h.8v1.1a1.46,1.46,0,0,1,.6-.9A1.69,1.69,0,0,1,89.2,42.2Zm4.7,0a2,2,0,0,1,1.1.3,1.46,1.46,0,0,1,.6.9V40.7h.8v6.1h-.8V45.6a1.46,1.46,0,0,1-.6.9,2.17,2.17,0,0,1-2.2,0,1.78,1.78,0,0,1-.7-.8,2.66,2.66,0,0,1-.3-1.2,2.38,2.38,0,0,1,.3-1.2,1.85,1.85,0,0,1,.7-.8A2,2,0,0,1,93.9,42.2Zm.2.7a1.37,1.37,0,0,0-1.1.4,2,2,0,0,0,0,2.4,1.5,1.5,0,0,0,1.1.4,1.88,1.88,0,0,0,.8-.2,1.7,1.7,0,0,0,.6-.6,2.13,2.13,0,0,0,0-1.8c-.1-.3-.3-.4-.6-.6C94.7,43,94.4,42.9,94.1,42.9Zm9-1.9v.6h-1.6v5.2h-.8V41.6H99V41Zm4.8,3.3v.4h-3.6a2.14,2.14,0,0,0,.4,1.2,1.28,1.28,0,0,0,1,.4,1.22,1.22,0,0,0,.9-.3,1.79,1.79,0,0,0,.5-.7h.8a2,2,0,0,1-.4.8,4.35,4.35,0,0,1-.7.6,3,3,0,0,1-1,.2,2.66,2.66,0,0,1-1.2-.3,3,3,0,0,1-.8-.8,2.66,2.66,0,0,1-.3-1.2,2.38,2.38,0,0,1,.3-1.2,2,2,0,0,1,.8-.8,2.13,2.13,0,0,1,1.2-.3,2.66,2.66,0,0,1,1.2.3,2,2,0,0,1,.8.8C107.8,43.6,107.9,43.9,107.9,44.3Zm-.7.1a1.08,1.08,0,0,0-.2-.8,1.21,1.21,0,0,0-.5-.5,1.85,1.85,0,0,0-.7-.2,1.16,1.16,0,0,0-1,.4,1.88,1.88,0,0,0-.5,1.1Zm3.6-2.2a2,2,0,0,1,1.4.5,1.85,1.85,0,0,1,.7,1.2h-.8a1.37,1.37,0,0,0-.5-.8,1.22,1.22,0,0,0-.9-.3,1.45,1.45,0,0,0-.7.2,1,1,0,0,0-.5.6,2.12,2.12,0,0,0,0,1.8,2.65,2.65,0,0,0,.5.6,1.85,1.85,0,0,0,.7.2,1.22,1.22,0,0,0,.9-.3,1.58,1.58,0,0,0,.5-.8h.8a2.06,2.06,0,0,1-2.1,1.8,2.66,2.66,0,0,1-1.2-.3,3,3,0,0,1-.8-.8,2.66,2.66,0,0,1-.3-1.2,2.38,2.38,0,0,1,.3-1.2,2,2,0,0,1,.8-.8A1.92,1.92,0,0,1,110.8,42.2Zm5.5,0a1.9,1.9,0,0,1,1.3.5,2.07,2.07,0,0,1,.5,1.5v2.6h-.8V44.2a1.33,1.33,0,0,0-.3-1,1.27,1.27,0,0,0-.9-.4,1.28,1.28,0,0,0-1,.4,2.14,2.14,0,0,0-.4,1.2v2.4h-.8V40.7h.8v2.7a1.46,1.46,0,0,1,.6-.9A1.69,1.69,0,0,1,116.3,42.2Zm8.2,3.3H122l-.5,1.4h-.8l2.2-5.7h.9l2.2,5.7h-1Zm-.2-.6L123.2,42l-1.1,2.9Zm4.1-2.7a2,2,0,0,1,1.1.3,1.46,1.46,0,0,1,.6.9V42.2h.8v4.6a2,2,0,0,1-.3,1.1,2.7,2.7,0,0,1-.7.8,2,2,0,0,1-1.1.3,2.41,2.41,0,0,1-1.5-.4,1.85,1.85,0,0,1-.7-1.2h.7a1.79,1.79,0,0,0,.5.7,1.49,1.49,0,0,0,1,.3,1.28,1.28,0,0,0,1-.4,1.37,1.37,0,0,0,.4-1.1V45.7a1.46,1.46,0,0,1-.6.9,2.17,2.17,0,0,1-2.2,0,1.78,1.78,0,0,1-.7-.8,2.66,2.66,0,0,1-.3-1.2,2.38,2.38,0,0,1,.3-1.2,1.85,1.85,0,0,1,.7-.8A1.16,1.16,0,0,1,128.4,42.2Zm.2.7a1.37,1.37,0,0,0-1.1.4,2,2,0,0,0,0,2.4,1.5,1.5,0,0,0,1.1.4,1.88,1.88,0,0,0,.8-.2,1.7,1.7,0,0,0,.6-.6,2.13,2.13,0,0,0,0-1.8c-.1-.3-.3-.4-.6-.6A2.15,2.15,0,0,1,128.6,42.9Zm7.6,1.4v.4h-3.6a2.14,2.14,0,0,0,.4,1.2,1.28,1.28,0,0,0,1,.4,1.22,1.22,0,0,0,.9-.3,1.79,1.79,0,0,0,.5-.7h.8a2,2,0,0,1-.4.8,4.35,4.35,0,0,1-.7.6,3,3,0,0,1-1,.2,2.66,2.66,0,0,1-1.2-.3,3,3,0,0,1-.8-.8,2.66,2.66,0,0,1-.3-1.2,2.38,2.38,0,0,1,.3-1.2,2,2,0,0,1,.8-.8,2.13,2.13,0,0,1,1.2-.3,2.66,2.66,0,0,1,1.2.3,2,2,0,0,1,.8.8C136.1,43.6,136.2,43.9,136.2,44.3Zm-.8.1a1.08,1.08,0,0,0-.2-.8,1.21,1.21,0,0,0-.5-.5,1.85,1.85,0,0,0-.7-.2,1.16,1.16,0,0,0-1,.4,1.88,1.88,0,0,0-.5,1.1Zm4.1-2.2a1.9,1.9,0,0,1,1.3.5,2.07,2.07,0,0,1,.5,1.5v2.6h-.8V44.2a1.33,1.33,0,0,0-.3-1,1.27,1.27,0,0,0-.9-.4,1.28,1.28,0,0,0-1,.4,2.14,2.14,0,0,0-.4,1.2v2.4h-.8V42.3h.8v1.1a1.46,1.46,0,0,1,.6-.9A1.69,1.69,0,0,1,139.5,42.2Zm4.8,0a2,2,0,0,1,1.4.5,2.4,2.4,0,0,1,.7,1.2h-.8a1.37,1.37,0,0,0-.5-.8,1.22,1.22,0,0,0-.9-.3,1.45,1.45,0,0,0-.7.2,1,1,0,0,0-.5.6,2.12,2.12,0,0,0,0,1.8,2.65,2.65,0,0,0,.5.6,1.85,1.85,0,0,0,.7.2,1.22,1.22,0,0,0,.9-.3,1.58,1.58,0,0,0,.5-.8h.8a2.06,2.06,0,0,1-2.1,1.8,2.66,2.66,0,0,1-1.2-.3,3,3,0,0,1-.8-.8,2.66,2.66,0,0,1-.3-1.2,2.38,2.38,0,0,1,.3-1.2,2,2,0,0,1,.8-.8A1.92,1.92,0,0,1,144.3,42.2Zm3.4.1,1.5,3.6,1.4-3.6h.8L148.7,49h-.9l.9-2.2-1.9-4.5Zm8.8-1.3a3.45,3.45,0,0,1,1.8.5,2.43,2.43,0,0,1,1,1.4h-.8a1.6,1.6,0,0,0-.7-.9,2.13,2.13,0,0,0-1.2-.3,1.69,1.69,0,0,0-1,.3,1.85,1.85,0,0,0-.7.8,2.55,2.55,0,0,0,0,2.4,2.7,2.7,0,0,0,.7.8,1.69,1.69,0,0,0,1,.3,2.13,2.13,0,0,0,1.2-.3,1.6,1.6,0,0,0,.7-.9h.8a2.43,2.43,0,0,1-1,1.4,3.45,3.45,0,0,1-1.8.5,2.3,2.3,0,0,1-1.4-.4,3.57,3.57,0,0,1-1-1.1,4,4,0,0,1-.3-1.5,3.34,3.34,0,0,1,.3-1.5,2.66,2.66,0,0,1,1-1.1A2.3,2.3,0,0,1,156.5,41Zm5.8,1.2a2.66,2.66,0,0,1,1.2.3,3,3,0,0,1,.8.8,2.66,2.66,0,0,1,.3,1.2,2.38,2.38,0,0,1-.3,1.2,3,3,0,0,1-.8.8,2.13,2.13,0,0,1-1.2.3,2.66,2.66,0,0,1-1.2-.3,3,3,0,0,1-.8-.8,2.66,2.66,0,0,1-.3-1.2,2.38,2.38,0,0,1,.3-1.2,2,2,0,0,1,.8-.8A2.13,2.13,0,0,1,162.3,42.2Zm0,.7a2.35,2.35,0,0,0-.8.2,1.7,1.7,0,0,0-.6.6,2.39,2.39,0,0,0-.2.9,2,2,0,0,0,.2.9,1.7,1.7,0,0,0,.6.6,1.88,1.88,0,0,0,.8.2,1.45,1.45,0,0,0,.7-.2,1.7,1.7,0,0,0,.6-.6,2.92,2.92,0,0,0,.2-.9,2,2,0,0,0-.2-.9c-.1-.3-.3-.4-.6-.6A1.85,1.85,0,0,0,162.3,42.9Zm8.7-.7a1.9,1.9,0,0,1,1.3.5,2.07,2.07,0,0,1,.5,1.5v2.6H172V44.2a1.49,1.49,0,0,0-.3-1,1.27,1.27,0,0,0-.9-.4,1.28,1.28,0,0,0-1,.4,1.9,1.9,0,0,0-.4,1.2v2.4h-.8V44.2a1.49,1.49,0,0,0-.3-1,1.27,1.27,0,0,0-.9-.4,1.28,1.28,0,0,0-1,.4,1.9,1.9,0,0,0-.4,1.2v2.4h-.8V42.3h.8v1a1.24,1.24,0,0,1,.6-.8,1.82,1.82,0,0,1,2,0,1.46,1.46,0,0,1,.6.9,1.46,1.46,0,0,1,.6-.9A3.46,3.46,0,0,1,171,42.2Zm5.4,0a2,2,0,0,1,1.1.3,1.78,1.78,0,0,1,.7.8,2.66,2.66,0,0,1,.3,1.2,2.38,2.38,0,0,1-.3,1.2,2.7,2.7,0,0,1-.7.8,2.17,2.17,0,0,1-2.2,0,1.46,1.46,0,0,1-.6-.9V49h-.8V42.3h.8v1.2a1.46,1.46,0,0,1,.6-.9A1.82,1.82,0,0,1,176.4,42.2Zm-.2.7a1.88,1.88,0,0,0-.8.2,1.7,1.7,0,0,0-.6.6,2.12,2.12,0,0,0,0,1.8,1.7,1.7,0,0,0,.6.6,1.88,1.88,0,0,0,.8.2,1.37,1.37,0,0,0,1.1-.4,2,2,0,0,0,0-2.4A1.38,1.38,0,0,0,176.2,42.9Zm5-.7a2,2,0,0,1,1.1.3,1.46,1.46,0,0,1,.6.9V42.2h.8v4.5H183V45.5a1.46,1.46,0,0,1-.6.9,2.17,2.17,0,0,1-2.2,0,1.78,1.78,0,0,1-.7-.8,2.66,2.66,0,0,1-.3-1.2,2.38,2.38,0,0,1,.3-1.2,1.85,1.85,0,0,1,.7-.8A1.64,1.64,0,0,1,181.2,42.2Zm.3.7a1.37,1.37,0,0,0-1.1.4,2,2,0,0,0,0,2.4,1.5,1.5,0,0,0,1.1.4,1.88,1.88,0,0,0,.8-.2,1.7,1.7,0,0,0,.6-.6,2.13,2.13,0,0,0,0-1.8c-.1-.3-.3-.4-.6-.6A2.15,2.15,0,0,1,181.5,42.9Zm5.8-.7a1.9,1.9,0,0,1,1.3.5,2.07,2.07,0,0,1,.5,1.5v2.6h-.8V44.2a1.33,1.33,0,0,0-.3-1,1.27,1.27,0,0,0-.9-.4,1.28,1.28,0,0,0-1,.4,2.14,2.14,0,0,0-.4,1.2v2.4h-.8V42.3h.8v1.1a1.46,1.46,0,0,1,.6-.9A1.49,1.49,0,0,1,187.3,42.2Zm3.1.1,1.5,3.6,1.4-3.6h.8L191.4,49h-.9l.9-2.2-1.9-4.5Z" transform="translate(0 0.1)"/></svg>